Coordinates
version=1
nRows=24
nColumns=38
inDegrees=no

Units are S.I. units (second, meters, Newtons, ...)
If the header above contains a line with 'inDegrees', this indicates whether rotational values are in degrees (yes) or radians (no).

endheader
time	pelvis_tilt	pelvis_list	pelvis_rotation	pelvis_tx	pelvis_ty	pelvis_tz	hip_flexion_r	hip_adduction_r	hip_rotation_r	knee_angle_r	ankle_angle_r	subtalar_angle_r	mtp_angle_r	hip_flexion_l	hip_adduction_l	hip_rotation_l	knee_angle_l	ankle_angle_l	subtalar_angle_l	mtp_angle_l	lumbar_extension	lumbar_bending	lumbar_rotation	arm_flex_r	arm_add_r	arm_rot_r	elbow_flex_r	pro_sup_r	wrist_flex_r	wrist_dev_r	arm_flex_l	arm_add_l	arm_rot_l	elbow_flex_l	pro_sup_l	wrist_flex_l	wrist_dev_l
0	2.77388	1.32859	-1.26927	0.699653	-0.3557	0.94685	-0.360717	0.058035	-0.259715	0	-0.0487827	0	0	-0.364036	-0.0791369	-0.293077	0	0.00351458	0	0	-0.332315	0.0628852	0.121716	0.0216734	-0.268684	0.656968	0.397565	0.875955	0	0	0.0127409	-0.199285	0.301889	0.519694	1.5708	0	0
0.01	2.77431	1.32823	-1.26996	0.699717	-0.355656	0.946849	-0.36122	0.0580426	-0.259374	0	-0.0486727	0	0	-0.364584	-0.0791286	-0.293124	0	0.00366587	0	0	-0.332598	0.0626106	0.121875	0.0197546	-0.267744	0.641864	0.400844	0.891939	0	0	0.0105805	-0.198649	0.283857	0.522802	1.5708	0	0
0.02	2.77372	1.32832	-1.26958	0.699751	-0.355605	0.946816	-0.361182	0.0581205	-0.258913	0	-0.0489461	0	0	-0.364506	-0.0791936	-0.293567	0	0.00415079	0	0	-0.332542	0.0626469	0.121775	0.0175172	-0.267264	0.624876	0.406038	0.909323	0	0	0.00743871	-0.198082	0.264413	0.528878	1.5708	0	0
0.03	2.7257	1.32547	-1.22668	0.703012	-0.355966	0.946795	-0.359367	0.0741185	-0.256046	0	-0.051805	0	0	-0.365251	-0.0951161	-0.302841	0	0.00686399	0	0	-0.33222	0.0686589	0.128241	0.0158968	-0.260875	0.606412	0.410793	0.927316	0	0	0.00295839	-0.203668	0.241567	0.541272	1.5708	0	0
0.04	2.77798	1.32807	-1.27417	0.699899	-0.35544	0.94682	-0.361997	0.0571784	-0.259423	0	-0.0483057	0	0	-0.365412	-0.0782996	-0.292626	0	0.00381298	0	0	-0.33341	0.0611181	0.12061	0.0111496	-0.266796	0.584081	0.423518	0.946341	0	0	-0.00109506	-0.19718	0.215454	0.549041	1.5708	0	0
0.05	2.77863	1.32783	-1.2753	0.70009	-0.355319	0.946854	-0.362493	0.0571514	-0.259192	0	-0.0482836	0	0	-0.36607	-0.0783127	-0.291976	0	0.0036584	0	0	-0.333639	0.0603383	0.120718	0.00636983	-0.266846	0.558168	0.43634	0.964663	0	0	-0.00615448	-0.197467	0.189549	0.563696	1.5708	0	0
0.06	2.77735	1.32861	-1.27434	0.70021	-0.355202	0.946799	-0.361721	0.0572595	-0.25887	0	-0.0484491	0	0	-0.365293	-0.0784214	-0.292139	0	0.00403029	0	0	-0.332633	0.0598709	0.120734	0.000815227	-0.267261	0.528793	0.452094	0.983122	0	0	-0.0118578	-0.19809	0.164092	0.581747	1.5708	0	0
0.07	2.72727	1.32765	-1.22884	0.703411	-0.355588	0.946644	-0.357787	0.0732437	-0.256338	0	-0.0511573	0	0	-0.363531	-0.0942913	-0.302108	0	0.00723306	0	0	-0.330155	0.0656052	0.126785	-0.00352725	-0.261903	0.500109	0.467521	1.00226	0	0	-0.018398	-0.204966	0.138521	0.606187	1.5708	0	0
0.08	2.77792	1.33128	-1.27506	0.700266	-0.35498	0.946643	-0.359265	0.0562732	-0.259107	0	-0.0481147	0	0	-0.362612	-0.0774747	-0.291681	0	0.00440223	0	0	-0.329613	0.0582247	0.120059	-0.0115197	-0.269426	0.47104	0.491993	1.02176	0	0	-0.0242814	-0.19964	0.11217	0.62554	1.5708	0	0
0.09	2.72362	1.33048	-1.22527	0.703566	-0.355369	0.946513	-0.354812	0.0733128	-0.256361	0	-0.0514743	0	0	-0.360463	-0.0943749	-0.302084	0	0.0076775	0	0	-0.326585	0.0647008	0.126226	-0.0168832	-0.264697	0.442916	0.512946	1.04042	0	0	-0.0312046	-0.207222	0.0867224	0.65479	1.5708	0	0
0.1	2.72364	1.33203	-1.2251	0.703627	-0.35527	0.946499	-0.353452	0.0728502	-0.255815	0	-0.0520993	0	0	-0.359043	-0.093968	-0.301252	0	0.00726136	0	0	-0.324633	0.0637614	0.125405	-0.0244701	-0.267008	0.41726	0.540372	1.05961	0	0	-0.0376605	-0.208183	0.0580695	0.681866	1.5708	0	0
0.11	2.82916	1.34459	-1.31869	0.698921	-0.352646	0.945578	-0.355539	0.04077	-0.213219	0	-0.0416368	0	0	-0.354054	-0.0614827	-0.279798	0	0.0032252	0	0	-0.311344	0.0469162	0.106826	-0.0417317	-0.275725	0.389125	0.575542	1.08543	0	0	-0.0480228	-0.189376	-0.00381223	0.696358	1.5708	0	0
0.12	2.82534	1.34791	-1.31526	0.699049	-0.352434	0.945471	-0.351935	0.0407802	-0.212823	0	-0.0418441	0	0	-0.350473	-0.0615025	-0.279255	0	0.00283906	0	0	-0.307081	0.0467759	0.106774	-0.051215	-0.278918	0.362626	0.609371	1.10615	0	0	-0.0544153	-0.187823	-0.0367009	0.727004	1.5708	0	0
0.13	2.82014	1.3492	-1.31073	0.699144	-0.352262	0.945586	-0.350428	0.0414399	-0.210929	0	-0.0440287	0	0	-0.349071	-0.062155	-0.280265	0	0.00281016	0	0	-0.305307	0.0480075	0.107203	-0.0607042	-0.282638	0.334193	0.646641	1.12564	0	0	-0.0593084	-0.178756	-0.0837058	0.757533	1.5708	0	0
0.14	2.71388	1.31097	-1.22766	0.704795	-0.355617	0.949687	-0.374975	0.0796176	-0.183239	0	-0.0633199	0	0	-0.383074	-0.0998713	-0.31704	0	0.00195328	0	0	-0.348401	0.0719617	0.137659	-0.0569709	-0.285591	0.307542	0.689468	1.14484	0	0	-0.0550661	-0.186261	-0.0955993	0.804529	1.5708	0	0
0.15	2.75596	1.31687	-1.26255	0.701543	-0.354724	0.949432	-0.373953	0.0644198	-0.191768	0	-0.059497	0	0	-0.379227	-0.084912	-0.302744	0	-0.000793881	0	0	-0.343742	0.0652739	0.12915	-0.0702232	-0.295307	0.279557	0.735091	1.16683	0	0	-0.06372	-0.197668	-0.0808834	0.847462	1.5708	0	0
0.16	2.75148	1.32147	-1.25718	0.701518	-0.354577	0.949188	-0.36892	0.0643927	-0.192364	0	-0.0598058	0	0	-0.37377	-0.0849241	-0.302402	0	-0.000411227	0	0	-0.338197	0.0646771	0.127825	-0.0798833	-0.299266	0.255367	0.777186	1.19217	0	0	-0.0697074	-0.202703	-0.0938755	0.888657	1.5708	0	0
0.17	2.7022	1.3223	-1.21451	0.705085	-0.355157	0.949212	-0.362597	0.0795083	-0.184937	0	-0.0636364	0	0	-0.369957	-0.0998865	-0.31455	0	0.00162466	0	0	-0.334218	0.0686297	0.135326	-0.0862066	-0.297083	0.236913	0.816151	1.21759	0	0	-0.075434	-0.213628	-0.108775	0.935577	1.5708	0	0
0.18	2.73894	1.33369	-1.24426	0.701638	-0.354318	0.94861	-0.355085	0.0637921	-0.193762	0	-0.0586342	0	0	-0.359611	-0.0844278	-0.30021	0	-0.000678658	0	0	-0.323849	0.0629952	0.126245	-0.099403	-0.308649	0.214311	0.869465	1.23463	0	0	-0.0804774	-0.211368	-0.12255	0.973253	1.5708	0	0
0.19	2.73375	1.37623	-1.22484	0.702241	-0.351197	0.944108	-0.315985	0.0563214	-0.210665	0	-0.0468815	0	0	-0.314933	-0.0770151	-0.283419	0	0.00505205	0	0	-0.268866	0.0490502	0.107412	-0.117629	-0.300221	0.188154	0.908719	1.24933	0	0	-0.0981638	-0.226086	-0.134721	1.01794	1.5708	0	0
0.2	2.73036	1.38089	-1.22045	0.702226	-0.351007	0.943966	-0.311124	0.0556373	-0.211985	0	-0.0467455	0	0	-0.309689	-0.0763528	-0.281503	0	0.00428175	0	0	-0.263426	0.0476708	0.105952	-0.127188	-0.305044	0.166125	0.962405	1.26745	0	0	-0.102094	-0.233362	-0.143436	1.06128	1.5708	0	0
0.21	2.78352	1.3873	-1.26938	0.699291	-0.350784	0.943955	-0.309244	0.039851	-0.216596	0	-0.043599	0	0	-0.305862	-0.0608479	-0.270694	0	0.000652767	0	0	-0.2592	0.0408382	0.100437	-0.139789	-0.317048	0.145255	1.02339	1.29053	0	0	-0.104058	-0.236786	-0.146329	1.09974	1.5708	0	0
0.22	2.77902	1.3911	-1.26487	0.699444	-0.350626	0.94383	-0.305199	0.0397211	-0.216088	0	-0.0439076	0	0	-0.301634	-0.0607128	-0.270429	0	0.000470648	0	0	-0.254739	0.0395473	0.100132	-0.148939	-0.32226	0.12783	1.08013	1.31834	0	0	-0.105638	-0.248033	-0.147427	1.1414	1.5708	0	0
0.23	2.72306	1.39129	-1.211	0.702419	-0.350703	0.943631	-0.30039	0.0542259	-0.213546	0	-0.0473167	0	0	-0.29776	-0.0749282	-0.278941	0	0.00349357	0	0	-0.251869	0.0423842	0.103007	-0.154048	-0.320849	0.112721	1.1334	1.34514	0	0	-0.105944	-0.269722	-0.143174	1.18661	1.5708	0	0
